<!-- Generated by IcoMoon.io -->
<svg version="1.1" xmlns="http://www.w3.org/2000/svg" width="1331" height="512" viewBox="0 0 1331 512">
<title></title>
<path fill="#2f6eb6" d="M526.925 280.576c-18.163 0-32.192 8.179-37.913 24.384h-0.653c-4.135-15.565-17.037-24.384-34.56-24.384-16.256 0-28.185 5.606-37.913 19.558h-0.64v-15.552h-36.8v151.923h38.553v-100.109c0-17.485 7.808-25.83 20.070-25.83 10.841 0 14.976 6.899 14.976 19.571v106.368h38.553v-100.109c0-17.485 7.808-25.831 20.070-25.831 10.829 0 15.143 6.899 15.143 19.571v106.368h38.221v-110.541c0-29.184-11.776-45.389-37.107-45.389zM257.869 280.576c-43.981 0-59.111 28.070-59.111 79.897 0 52.941 12.915 81.011 59.111 80.051 44.121 0 59.264-28.070 59.264-80.051-0.013-52.787-12.915-80.717-59.264-79.897zM257.869 413.901c-18.957 0-20.544-22.298-20.544-53.427s1.575-53.274 20.544-53.274c15.616 0 20.711 15.411 20.711 53.274 0 37.849-5.107 53.427-20.711 53.427zM924.697 240.935h-38.387v43.648h-19.597v26.457h19.597v87.117c0 30.81 5.581 40.128 35.687 40.128 8.909 0 16.73-0.807 25.165-1.779v-27.111c-2.547 0.32-5.735 0.64-8.768 0.64-11.149 0-13.696-4.8-13.696-16.678v-82.317h22.464v-26.457h-22.464v-43.648zM324.608 265.817h38.387v-33.37h-38.387v33.37zM83.584 240.935h-38.553v43.648h-19.43v26.457h19.43v87.117c0 30.81 5.581 40.128 35.687 40.128 8.921 0 16.883-0.807 25.177-1.779v-27.111c-2.547 0.32-5.581 0.64-8.615 0.64-11.149 0-13.683-4.8-13.683-16.678v-82.317h22.297v-26.457h-22.311v-43.648zM200.986 281.216c-2.24-0.307-4.774-0.64-7.014-0.64-15.757 0-26.765 9.625-34.56 24.384h-0.474v-20.377h-36.8v151.923h38.387v-91.29c0-20.377 15.143-27.443 28.518-27.443 3.827 0 8.128 0.32 11.955 0.486v-37.043zM324.608 433.792c0 16.691-1.433 24.384-15.142 24.384-2.24 0-4.135 0-6.208-0.64v28.237c5.735 0.307 11.315 0.64 15.757 0.64 34.573 0 43.981-13.965 43.981-39.309v-162.522h-38.387v149.209zM740.224 327.104c0-27.277-8.601-46.528-54.311-46.528-29.005 0-52.736 11.878-52.736 46.848v3.687h34.573v-4.339c0-11.712 6.054-19.571 17.843-19.571 12.903 0 17.843 7.065 17.843 18.445 0 10.279-3.827 14.759-15.283 17.817l-21.824 5.939c-26.445 7.373-37.913 18.931-37.913 47.488 0 20.377 9.562 43.635 36.327 43.635 18.317 0 29.312-4.007 38.221-19.738h0.473c1.126 4.979 2.24 10.918 4.787 15.731h36.8c-3.994-8.666-4.787-15.232-4.787-29.351v-80.064zM703.424 390.464c0 16.704-13.376 23.437-23.731 23.437-10.368 0-14.503-9.639-14.503-21.184 0-13.619 6.208-21.171 21.824-24.538 4.774-1.127 11.149-3.699 16.397-7.705v29.99zM1010.087 280.576c-44.121 0-59.097 28.070-59.097 79.897 0 52.941 12.749 81.011 59.097 80.051 43.968 0 59.097-28.070 59.097-80.051 0-52.787-12.902-80.717-59.097-79.897zM1010.087 413.901c-18.957 0-20.711-22.298-20.711-53.427s1.754-53.274 20.711-53.274c15.616 0 20.544 15.411 20.544 53.274 0.013 37.849-4.928 53.427-20.544 53.427zM580.121 436.519h38.4v-151.936h-38.4v151.936zM831.667 349.235l-23.091-8.026c-12.915-4.16-16.742-10.419-16.742-17.805 0-10.599 8.282-16.217 17.997-16.217 12.582 0 17.049 7.552 17.049 22.784h34.573v-6.259c0-27.264-16.409-43.149-51.303-43.149-39.514 0-55.13 20.697-55.13 45.721 0 21.504 10.841 34.816 32.025 42.355l27.085 9.945c7.488 2.893 13.85 7.373 13.85 17.165 0 12.199-7.795 18.137-19.431 18.137-13.222 0-20.071-8.666-20.071-21.99v-5.12h-34.726v5.453c0 29.043 12.096 48.281 55.27 48.281 32.333 0 55.744-15.872 55.744-47.808 0.038-22.925-8.896-35.289-33.101-43.469zM580.121 265.817h38.4v-33.37h-38.4v33.37zM753.779 284.582c-41.741-145.037-138.279-163.648-209.178-148.557-49.37 10.419-101.478-107.814-190.669-110.387-39.040-1.127-85.235 17.331-141.312 82.944 97.178-60.967 170.457-44.288 213.312 11.879l77.094 100.915c101.632-50.701 167.104-68.186 250.752 63.206z"></path>
<path fill="#56c5e9" d="M1213.197 280.576c-15.142 0-25.651 5.926-34.087 20.045h-0.486v-16.051h-36.787v201.843h38.387v-64.025h0.64c8.128 12.199 17.843 18.137 32.333 18.137 31.539 0 46.042-23.424 46.042-80.064 0-56.474-14.503-79.885-46.042-79.885zM1200.614 410.509c-17.037 0-20.39-16.998-20.39-50.048s3.353-49.882 20.39-49.882c16.729 0 20.071 16.832 20.071 49.882s-3.353 50.048-20.071 50.048zM1267.2 234.688v201.831h38.4v-201.831h-38.4z"></path>
<path fill="#eb7225" d="M1103.13 375.065c-17.689 0-32.025 14.438-32.025 32.089 0 17.817 14.336 32.256 32.025 32.256 17.523 0 31.847-14.438 31.847-32.256 0-17.651-14.323-32.089-31.847-32.089z"></path>
</svg>
